<svg id="Layer_1" data-name="Layer 1" xmlns="http://www.w3.org/2000/svg" viewBox="0 0 283.46 283.46">
  <defs>
    <style>
      .cls-1 {
        fill: #273339;
      }
    </style>
  </defs>
  <title>Untitled-1</title>
  <path class="cls-1" d="M275.14,129.38,154.08,8.33a17.84,17.84,0,0,0-25.25,0L103.69,33.46l31.89,31.89a21.21,21.21,0,0,1,26.85,27l30.74,30.73a21.22,21.22,0,1,1-12.73,12l-28.66-28.66v75.43a21.59,21.59,0,0,1,5.62,4,21.23,21.23,0,1,1-23.1-4.63V105.12a20.88,20.88,0,0,1-7-4.64,21.23,21.23,0,0,1-4.58-23.22L91.34,45.82l-83,83a17.85,17.85,0,0,0,0,25.26L129.39,275.14a17.86,17.86,0,0,0,25.25,0l120.5-120.5a17.87,17.87,0,0,0,0-25.26"/>
</svg>
