<svg width="89" height="84" viewBox="0 0 89 84" fill="none" xmlns="http://www.w3.org/2000/svg">
<path d="M44.1721 1.84188e-05C33.6917 -0.00943853 23.5504 3.62307 15.5653 10.2466C7.58027 16.8702 2.27335 26.0519 0.595514 36.1466C-1.08232 46.2412 0.978591 56.5889 6.40896 65.3356C11.8393 74.0822 20.2842 80.6561 30.2304 83.8793C32.4339 84.279 33.2435 82.9499 33.2435 81.8098C33.2435 80.7843 33.2023 77.3949 33.1832 73.7979C20.9148 76.388 18.3272 68.6984 18.3272 68.6984C16.3173 63.7414 13.4312 62.4122 13.4312 62.4122C9.42748 59.7416 13.7487 59.7943 13.7487 59.7943C18.1748 60.1041 20.5084 64.2309 20.5084 64.2309C24.4423 70.8082 30.8242 68.906 33.342 67.8092C33.7357 65.0209 34.8787 63.1279 36.1424 62.0529C26.3315 60.953 16.0316 57.2755 16.0316 40.7872C15.9699 36.5107 17.5968 32.3751 20.5751 29.2373C20.1274 28.1529 18.6097 23.7752 21.0037 17.8485C21.0037 17.8485 24.7058 16.6898 33.1356 22.2602C40.3642 20.327 47.9927 20.327 55.2213 22.2602C63.6383 16.6836 67.3372 17.8485 67.3372 17.8485C69.7376 23.7752 68.2263 28.1529 67.7691 29.2373C70.7493 32.3734 72.3745 36.5107 72.3062 40.7872C72.3062 57.3158 61.9905 60.953 52.17 62.0188C53.7576 63.3541 55.1609 65.9751 55.1609 69.9872C55.1609 75.7467 55.1101 80.3815 55.1101 81.7974C55.1101 82.9437 55.9039 84.2759 58.1391 83.8607C68.0696 80.6231 76.4959 74.0442 81.9113 65.3003C87.3266 56.5565 89.3777 46.2181 87.6978 36.1339C86.0179 26.0498 80.7165 16.8776 72.7418 10.2576C64.767 3.6377 54.639 0.00174643 44.1689 1.84188e-05" fill="#273339"/>
<path d="M16.5904 61.3032C16.4919 61.5169 16.1459 61.5789 15.8347 61.4333C15.5235 61.2877 15.333 61.0026 15.4378 60.7858C15.5426 60.5689 15.8792 60.5069 16.1967 60.6525C16.5142 60.7982 16.7015 61.0863 16.5904 61.3032ZM18.7589 63.19C18.5494 63.3821 18.1239 63.2922 17.8572 62.9917C17.5905 62.6912 17.5143 62.2915 17.7302 62.0963C17.9461 61.9011 18.3462 61.9972 18.6351 62.2977C18.924 62.5982 18.978 62.9979 18.7589 63.19ZM20.248 65.6066C19.975 65.7894 19.5337 65.6066 19.2606 65.2348C18.9875 64.863 18.9907 64.3952 19.2606 64.2124C19.5305 64.0296 19.9686 64.1938 20.248 64.5718C20.5274 64.9498 20.5179 65.4207 20.248 65.6066ZM22.7627 68.395C22.5214 68.6552 22.007 68.584 21.6292 68.2308C21.2514 67.8776 21.1371 67.3912 21.3784 67.1309C21.6197 66.8707 22.1436 66.9419 22.5214 67.2951C22.8992 67.6483 23.023 68.1378 22.7627 68.395ZM26.0171 69.3399C25.9092 69.6745 25.4139 69.8295 24.9154 69.6869C24.4169 69.5444 24.0899 69.1448 24.1915 68.8039C24.2931 68.4631 24.7916 68.3051 25.2964 68.4569C25.8012 68.6088 26.1219 68.996 26.0171 69.3399ZM29.7193 69.7396C29.7193 70.0959 29.3065 70.3902 28.7826 70.3964C28.2587 70.4026 27.8301 70.1207 27.8301 69.7768C27.8301 69.4329 28.2429 69.1262 28.7826 69.1169C29.3224 69.1076 29.7351 69.3926 29.7351 69.7365L29.7193 69.7396ZM33.3706 69.6002C33.4341 69.9472 33.0531 70.3035 32.5482 70.3964C32.0434 70.4894 31.564 70.2756 31.4973 69.9317C31.4306 69.5878 31.8148 69.2222 32.3165 69.1293C32.8181 69.0363 33.3039 69.2501 33.3706 69.6002Z" fill="#273339"/>
</svg>
