<svg width="50" height="49" viewBox="0 0 50 49" fill="none" xmlns="http://www.w3.org/2000/svg">
<path d="M25.0137 1.05667e-05C19.0753 -0.00541481 13.329 2.07853 8.80456 5.87842C4.28008 9.67832 1.27308 14.9458 0.322385 20.737C-0.628307 26.5282 0.539444 32.4646 3.61639 37.4825C6.69334 42.5004 11.4784 46.2718 17.1141 48.1209C18.3626 48.3502 18.8214 47.5877 18.8214 46.9336C18.8214 46.3453 18.798 44.4009 18.7872 42.3373C11.8357 43.8232 10.3695 39.4118 10.3695 39.4118C9.23067 36.5679 7.59534 35.8054 7.59534 35.8054C5.32674 34.2733 7.77524 34.3035 7.77524 34.3035C10.2831 34.4813 11.6054 36.8488 11.6054 36.8488C13.8344 40.6222 17.4505 39.5308 18.8771 38.9016C19.1002 37.302 19.7479 36.216 20.4639 35.5993C14.9048 34.9683 9.06875 32.8585 9.06875 23.3993C9.0338 20.9459 9.95562 18.5733 11.6432 16.7732C11.3895 16.1511 10.5296 13.6397 11.8861 10.2395C11.8861 10.2395 13.9837 9.57478 18.7602 12.7705C22.8561 11.6615 27.1785 11.6615 31.2743 12.7705C36.0436 9.57123 38.1395 10.2395 38.1395 10.2395C39.4996 13.6397 38.6432 16.1511 38.3842 16.7732C40.0728 18.5724 40.9937 20.9459 40.955 23.3993C40.955 32.8816 35.1099 34.9683 29.5455 35.5797C30.445 36.3458 31.2402 37.8494 31.2402 40.1511C31.2402 43.4553 31.2114 46.1143 31.2114 46.9265C31.2114 47.5842 31.6611 48.3484 32.9277 48.1103C38.5544 46.2529 43.329 42.4786 46.3974 37.4623C49.4658 32.446 50.628 26.515 49.6762 20.7298C48.7243 14.9446 45.7204 9.68255 41.2018 5.88473C36.6832 2.08692 30.9444 0.00100192 25.0119 1.05667e-05" fill="white"/>
<path d="M9.3854 35.1691C9.32963 35.2917 9.13353 35.3273 8.95722 35.2437C8.78092 35.1602 8.67297 34.9967 8.73234 34.8723C8.79171 34.7478 8.98241 34.7123 9.16231 34.7958C9.34222 34.8794 9.44836 35.0447 9.3854 35.1691ZM10.6141 36.2515C10.4954 36.3617 10.2543 36.3102 10.1032 36.1378C9.95209 35.9654 9.90892 35.7361 10.0313 35.6241C10.1536 35.5121 10.3803 35.5672 10.544 35.7396C10.7077 35.912 10.7383 36.1413 10.6141 36.2515ZM11.4579 37.6379C11.3032 37.7427 11.0531 37.6379 10.8984 37.4246C10.7437 37.2113 10.7455 36.9429 10.8984 36.8381C11.0513 36.7332 11.2996 36.8274 11.4579 37.0442C11.6162 37.2611 11.6108 37.5312 11.4579 37.6379ZM12.8827 39.2375C12.746 39.3868 12.4546 39.3459 12.2405 39.1433C12.0264 38.9407 11.9616 38.6617 12.0984 38.5124C12.2351 38.363 12.5319 38.4039 12.746 38.6066C12.9601 38.8092 13.0303 39.09 12.8827 39.2375ZM14.7268 39.7796C14.6656 39.9716 14.3849 40.0605 14.1025 39.9787C13.82 39.8969 13.6347 39.6676 13.6923 39.4721C13.7499 39.2766 14.0323 39.186 14.3184 39.2731C14.6044 39.3602 14.7861 39.5823 14.7268 39.7796ZM16.8244 40.0089C16.8244 40.2133 16.5906 40.3822 16.2937 40.3857C15.9969 40.3893 15.754 40.2275 15.754 40.0302C15.754 39.8329 15.9879 39.657 16.2937 39.6517C16.5996 39.6463 16.8334 39.8098 16.8334 40.0071L16.8244 40.0089ZM18.8933 39.9289C18.9293 40.128 18.7134 40.3324 18.4274 40.3857C18.1413 40.439 17.8697 40.3164 17.8319 40.1191C17.7941 39.9218 18.0118 39.7121 18.2961 39.6588C18.5803 39.6054 18.8556 39.7281 18.8933 39.9289Z" fill="white"/>
</svg>
