<svg id="Layer_1" data-name="Layer 1" xmlns="http://www.w3.org/2000/svg" viewBox="0 0 283.46 283.46">
  <defs>
    <style>
      .cls-1 {
        fill: #273339;
      }

      .cls-2 {
        fill: #fff;
      }
    </style>
  </defs>
  <title>Untitled-1</title>
  <g>
    <polygon class="cls-1" points="17.66 1.02 40.24 254.31 141.58 282.44 243.19 254.27 265.8 1.02 17.66 1.02"/>
    <polygon class="cls-2" points="141.73 52.8 141.63 52.8 63.84 52.8 64.58 61.13 72.22 146.74 141.63 146.74 141.73 146.74 179.88 146.74 176.27 187.03 141.63 196.38 141.63 196.38 141.6 196.39 107 187.05 104.79 162.27 73.61 162.27 77.96 211.05 141.59 228.71 141.73 228.67 141.73 228.67 205.31 211.05 205.78 205.8 213.08 124.02 213.83 115.67 205.46 115.67 141.73 115.67 141.63 115.67 100.63 115.67 97.79 83.86 141.63 83.86 141.73 83.86 216.66 83.86 217.28 76.88 218.7 61.13 219.44 52.8 141.73 52.8"/>
  </g>
</svg>
