<svg id="Layer_1" data-name="Layer 1" xmlns="http://www.w3.org/2000/svg" viewBox="0 0 283.46 283.46">
  <defs>
    <style>
      .cls-1 {
        fill: #273339;
      }

      .cls-2 {
        fill: #fff;
      }
    </style>
  </defs>
  <title>Untitled-1</title>
  <g>
    <path class="cls-1" d="M17.27,3.7H266.2a13.57,13.57,0,0,1,13.56,13.57V266.2a13.56,13.56,0,0,1-13.56,13.56H17.27A13.57,13.57,0,0,1,3.7,266.2V17.27A13.58,13.58,0,0,1,17.27,3.7Z"/>
    <path class="cls-2" d="M257.17,213.92c-2-12.59-10.24-23.17-34.56-33-8.45-3.88-17.87-6.66-20.68-13.06-1-3.73-1.13-5.83-.5-8.09,1.81-7.32,10.55-9.6,17.48-7.5a19.21,19.21,0,0,1,11.23,10.42c11.91-7.72,11.89-7.67,20.21-13-3-4.72-4.67-6.9-6.67-8.92-7.16-8-16.92-12.12-32.54-11.81L203,130c-7.8,2-15.22,6.06-19.58,11.55-13.07,14.83-9.34,40.78,6.56,51.46,15.67,11.75,38.68,14.43,41.62,25.43,2.86,13.46-9.89,17.81-22.57,16.27-9.34-2-14.54-6.7-20.15-15.33-10.34,6-10.34,6-21,12.1,2.52,5.51,5.17,8,9.4,12.78,20,20.28,70,19.29,79-11.42C256.7,231.79,259.11,224.76,257.17,213.92ZM153.78,130.58H128c0,22.3-.11,44.45-.11,66.76,0,14.19.74,27.21-1.57,31.2-3.78,7.85-13.57,6.87-18,5.35-4.54-2.23-6.85-5.4-9.53-9.89a12.47,12.47,0,0,0-1.47-2.36q-10.5,6.42-21,12.86a41.47,41.47,0,0,0,15.22,17.42c9.84,5.9,23.07,7.72,36.9,4.54,9-2.62,16.76-8.06,20.83-16.32,5.88-10.84,4.62-24,4.57-38.47.13-23.67,0-47.34,0-71.09Z"/>
  </g>
</svg>
