<svg width="60" height="60" viewBox="0 0 60 60" fill="none" xmlns="http://www.w3.org/2000/svg">
<g clip-path="url(#clip0)">
<path d="M28.3411 0.68742C28.3404 0.688126 28.3395 0.688713 28.3388 0.689533L16.1514 12.9361C15.2384 13.8536 15.2418 15.3375 16.1593 16.2507C17.0768 17.1639 18.5607 17.1604 19.4739 16.2429L27.6563 8.02055L27.6563 57.6562C27.6563 58.9507 28.7056 60 30.0001 60C31.2945 60 32.3438 58.9507 32.3438 57.6562V8.02066L40.5263 16.2428C41.4394 17.1602 42.9234 17.1637 43.8408 16.2506C44.7585 15.3374 44.7617 13.8533 43.8488 12.936L31.6613 0.689415C31.6606 0.688709 31.6598 0.688126 31.6591 0.687302C30.7429 -0.230625 29.2542 -0.227695 28.3411 0.68742Z" fill="white"/>
</g>
<defs>
<clipPath id="clip0">
<rect width="60" height="60" fill="white" transform="translate(0 60) rotate(-90)"/>
</clipPath>
</defs>
</svg>
