<svg id="Layer_1" data-name="Layer 1" xmlns="http://www.w3.org/2000/svg" viewBox="0 0 283.46 283.46">
  <defs>
    <style>
      .cls-1 {
        fill: #273339;
      }
    </style>
  </defs>
  <title>Untitled-1</title>
  <path class="cls-1" d="M241.5,157.12A56.84,56.84,0,0,0,216.45,163c-2.6-5.13-5.19-9.61-5.62-13-.49-3.89-1.08-6.27-.49-10.91s3.3-11.24,3.3-11.78-.6-2.86-6.16-2.91-10.37,1.08-10.91,2.54a61.19,61.19,0,0,0-2.32,8.26c-1,5.08-11.13,23.06-16.91,32.51-1.89-3.67-3.51-6.91-3.83-9.5-.49-3.89-1.08-6.27-.49-10.91s3.3-11.24,3.3-11.78-.6-2.86-6.16-2.91-10.37,1.08-10.91,2.54-1.13,4.91-2.32,8.26-14.64,33.37-18.15,41.21c-1.78,4-3.35,7.18-4.48,9.34s-.05.16-.16.38l-1.51,2.86v.05c-.76,1.35-1.57,2.65-1.95,2.65s-.81-3.62.11-8.59c2-10.42,6.86-26.68,6.8-27.27,0-.27.92-3.13-3.13-4.59s-5.34,1-5.67,1-.59.87-.59.87S132.57,143,119.83,143c-8,0-19,8.69-24.47,16.63-3.46,1.89-10.8,5.89-18.58,10.16-3,1.62-6,3.34-9,4.91l-.6-.65c-15.44-16.47-44-28.14-42.83-50.28.44-8,3.25-29.27,54.88-55,42.28-21.06,76.15-15.28,82-2.43,8.37,18.36-18.09,52.49-62.05,57.41-16.74,1.89-25.55-4.59-27.76-7s-2.65-2.65-3.51-2.16c-1.41.75-.54,3,0,4.37,1.3,3.41,6.7,9.45,15.88,12.48,8,2.65,27.7,4.1,51.47-5.08C162,116,182.74,87.39,176.64,63.47,170.43,39.11,130,31.12,91.85,44.67,69.11,52.77,44.49,65.41,26.77,82c-21.06,19.66-24.41,36.84-23,44,4.92,25.44,40,42,54,54.28l-1.94,1.08c-7,3.46-33.76,17.45-40.45,32.24-7.57,16.75,1.18,28.79,7,30.41,18,5,36.51-4,46.5-18.85s8.75-34.13,4.16-42.93l-.17-.33,5.51-3.24c3.57-2.11,7.08-4.05,10.15-5.72a67.21,67.21,0,0,0-3.61,18.36c-.76,9.5,3.13,21.82,8.26,26.68a9.17,9.17,0,0,0,6.64,2.16c5.94,0,8.64-4.92,11.61-10.8,3.68-7.19,6.92-15.5,6.92-15.5s-4.05,22.52,7,22.52c4,0,8.1-5.24,9.94-7.94v0l.32-.54c.23-.33.44-.67.65-1v-.11c1.62-2.81,5.24-9.24,10.64-19.88,7-13.71,13.66-30.89,13.66-30.89a99.07,99.07,0,0,0,2.65,11.13c1.19,4.1,3.78,8.58,5.78,13-1.62,2.27-2.6,3.56-2.6,3.56l.06.06c-1.3,1.73-2.76,3.56-4.27,5.4-5.51,6.59-12.1,14.1-13,16.26-1,2.53-.81,4.42,1.19,5.94,1.46,1.08,4.05,1.29,6.8,1.08A30.38,30.38,0,0,0,167.41,210a35.1,35.1,0,0,0,8.75-4.59,19.47,19.47,0,0,0,8.37-17.22,35,35,0,0,0-3.19-12.16c.49-.7,1-1.4,1.46-2.16a227.86,227.86,0,0,0,15.12-26.19,99.07,99.07,0,0,0,2.65,11.13c1,3.51,3.08,7.34,4.91,11.12-8,6.54-13,14.1-14.74,19.07-3.19,9.18-.7,13.34,4,14.31,2.11.43,5.13-.54,7.4-1.51a33.74,33.74,0,0,0,9.35-4.81c5.4-4,10.58-9.56,10.31-17.07a32.76,32.76,0,0,0-2.32-10.1c6.8-2.8,15.61-4.42,26.79-3.07,24,2.8,28.78,17.82,27.87,24.08s-5.95,9.72-7.62,10.8-2.21,1.41-2.05,2.16c.21,1.14,1,1.08,2.43.87,2-.33,12.64-5.13,13.07-16.69.65-14.85-13.45-31.06-38.46-30.89ZM56.15,219.6c-7.94,8.7-19.12,12-23.87,9.18-5.13-3-3.13-15.77,6.64-25a127.43,127.43,0,0,1,18.74-14c1.14-.7,2.87-1.73,4.92-3a4,4,0,0,1,.54-.32c.38-.22.81-.49,1.24-.76,3.62,13.18.16,24.74-8.21,33.86Zm58.06-39.48c-2.76,6.75-8.59,24.09-12.1,23.12-3-.81-4.86-13.94-.59-26.9,2.16-6.53,6.75-14.31,9.45-17.33,4.37-4.86,9.13-6.48,10.31-4.49C122.69,157.12,115.94,175.91,114.21,180.12Zm47.9,22.9c-1.18.6-2.26,1-2.75.71s.48-1,.48-1,6-6.43,8.38-9.4c1.35-1.73,3-3.72,4.69-6V188c0,7.77-7.45,13-10.8,15.06Zm36.94-8.42c-.86-.65-.75-2.65,2.16-8.91a33.43,33.43,0,0,1,8.21-10.59,13.26,13.26,0,0,1,.81,4.65C210.18,189.47,203.27,193.09,199.05,194.6Z"/>
</svg>
